# xmcd
#
# Track frame offsets: 
#        183
#        18983
#        33820
#        50920
#        71808
#        88570
#        110028
#        132433
#        148558
#        164408
#
# Disc length: 2482 seconds
#
# Revision: 1
# Processed by: cddbd v1.5.2PL0 Copyright (c) Steve Scherf et al.
# Submitted via: ExactAudioCopyFreeDBPlugin 1.0
#
DISCID=8e09b00a
DTITLE=Patty Pravo - Di Vero In Fondo
DYEAR=1971
DGENRE=
TTITLE0=Foglie Morte (Les Feuilles Mortes)
TTITLE1=E Tornò La Primavera
TTITLE2=Samba Preludio
TTITLE3=Canzone Degli Amanti (La Chanson Des Vieux Amants)
TTITLE4=Di Vero In Fondo
TTITLE5=Soolaimon
TTITLE6=Emozioni
TTITLE7=Love Story (dal film omonimo)
TTITLE8=Wild World
TTITLE9=Il Buio Viene Con Te (Lonely Days)
EXTD=
EXTT0=
EXTT1=
EXTT2=
EXTT3=
EXTT4=
EXTT5=
EXTT6=
EXTT7=
EXTT8=
EXTT9=
PLAYORDER=
